<svg width="130" height="128" viewBox="0 0 130 128" fill="none" xmlns="http://www.w3.org/2000/svg">
<path d="M83.3924 64.13L78.2362 64.1286L78.2399 49.5832L83.4388 49.5845C84.9019 49.5849 86.1613 49.8764 87.217 50.4591C88.2727 51.037 89.0845 51.8682 89.6524 52.9526C90.2251 54.037 90.5112 55.3345 90.5108 56.8449C90.5104 58.36 90.2236 59.662 89.6504 60.7509C89.0819 61.8398 88.265 62.6753 87.1995 63.2574C86.1387 63.8395 84.8697 64.1304 83.3924 64.13ZM81.3121 61.4945L83.2653 61.495C84.1744 61.4952 84.9391 61.3344 85.5594 61.0126C86.1845 60.6861 86.6534 60.182 86.9661 59.5002C87.2835 58.8137 87.4423 57.9284 87.4426 56.8441C87.4429 55.7693 87.2845 54.8909 86.9674 54.209C86.6551 53.5271 86.1889 53.0251 85.5687 52.703C84.9485 52.3809 84.1839 52.2197 83.2748 52.2194L81.3145 52.2189L81.3121 61.4945ZM97.7017 64.3468C96.5795 64.3465 95.6137 64.1189 94.8041 63.6642C93.9993 63.2047 93.3792 62.5559 92.9438 61.7177C92.5084 60.8748 92.2909 59.878 92.2912 58.7275C92.2915 57.6053 92.5095 56.6205 92.9454 55.7731C93.3812 54.9257 93.9945 54.2653 94.7854 53.792C95.581 53.3187 96.5138 53.0822 97.5839 53.0825C98.3036 53.0827 98.9735 53.1989 99.5937 53.431C100.219 53.6585 100.763 54.0019 101.227 54.4613C101.696 54.9207 102.06 55.4984 102.32 56.1945C102.581 56.8859 102.71 57.6956 102.71 58.6236L102.71 59.4546L93.4984 59.4522L93.4989 57.5772L99.8625 57.5788C99.8626 57.1432 99.768 56.7573 99.5787 56.4211C99.3894 56.0849 99.1267 55.822 98.7906 55.6325C98.4592 55.4383 98.0733 55.3412 97.633 55.3411C97.1737 55.3409 96.7665 55.4474 96.4113 55.6603C96.0609 55.8686 95.7862 56.1502 95.5872 56.5053C95.3883 56.8556 95.2864 57.2462 95.2815 57.6771L95.2811 59.4598C95.2809 59.9995 95.3802 60.4659 95.579 60.859C95.7825 61.252 96.0689 61.5551 96.4381 61.7683C96.8074 61.9815 97.2453 62.0881 97.752 62.0882C98.0881 62.0883 98.3959 62.0411 98.6753 61.9464C98.9547 61.8518 99.1938 61.7098 99.3927 61.5205C99.5917 61.3311 99.7432 61.0992 99.8475 60.8246L102.646 61.01C102.503 61.6823 102.212 62.2693 101.772 62.7711C101.336 63.2681 100.772 63.6563 100.081 63.9354C99.3944 64.2099 98.6013 64.347 97.7017 64.3468ZM114.564 53.229L110.747 64.1371L107.338 64.1362L103.527 53.2261L106.723 53.2269L108.986 61.0329L109.1 61.0329L111.36 53.2281L114.564 53.229ZM78.2299 88.1286L78.2337 73.5832L81.309 73.584L81.3059 85.5939L87.5417 85.5955L87.541 88.131L78.2299 88.1286ZM94.4923 88.3459C93.3702 88.3456 92.4043 88.1181 91.5948 87.6634C90.79 87.2039 90.1699 86.555 89.7345 85.7168C89.2991 84.8739 89.0815 83.8772 89.0818 82.7266C89.0821 81.6045 89.3002 80.6197 89.736 79.7722C90.1718 78.9248 90.7852 78.2645 91.576 77.7912C92.3716 77.3179 93.3044 77.0814 94.3745 77.0817C95.0942 77.0819 95.7642 77.198 96.3844 77.4302C97.0093 77.6577 97.5537 78.0011 98.0176 78.4605C98.4862 78.9199 98.8507 79.4976 99.1109 80.1937C99.3712 80.8851 99.5011 81.6948 99.5009 82.6228L99.5007 83.4538L90.289 83.4514L90.2895 81.5764L96.6532 81.578C96.6533 81.1424 96.5587 80.7565 96.3694 80.4203C96.1801 80.084 95.9174 79.8212 95.5812 79.6317C95.2498 79.4375 94.864 79.3403 94.4236 79.3402C93.9644 79.3401 93.5571 79.4465 93.202 79.6595C92.8515 79.8677 92.5768 80.1494 92.3779 80.5045C92.1789 80.8548 92.077 81.2454 92.0722 81.6763L92.0717 83.4589C92.0716 83.9987 92.1709 84.4651 92.3696 84.8582C92.5731 85.2512 92.8595 85.5543 93.2288 85.7675C93.598 85.9806 94.036 86.0873 94.5426 86.0874C94.8788 86.0875 95.1866 86.0402 95.466 85.9456C95.7453 85.851 95.9845 85.709 96.1834 85.5197C96.3823 85.3303 96.5339 85.0983 96.6381 84.8237L99.4364 85.0091C99.2941 85.6814 99.0028 86.2685 98.5623 86.7703C98.1266 87.2673 97.563 87.6554 96.8717 87.9346C96.1851 88.209 95.3919 88.3462 94.4923 88.3459ZM104.501 81.8286L104.499 88.1354L101.474 88.1347L101.477 77.2256L104.36 77.2263L104.36 79.151L104.488 79.1511C104.729 78.5167 105.134 78.0149 105.702 77.6457C106.271 77.2718 106.96 77.0849 107.769 77.0852C108.527 77.0854 109.187 77.2512 109.751 77.5828C110.314 77.9144 110.752 78.388 111.064 79.0036C111.377 79.6145 111.533 80.3437 111.533 81.1912L111.531 88.1373L108.505 88.1365L108.507 81.7302C108.512 81.0626 108.341 80.5417 107.996 80.1676C107.65 79.7887 107.175 79.5992 106.568 79.599C106.161 79.5989 105.801 79.6864 105.489 79.8616C105.181 80.0367 104.939 80.2923 104.764 80.6284C104.594 80.9598 104.506 81.3599 104.501 81.8286ZM122.994 80.3419L120.224 80.5117C120.177 80.2749 120.075 80.0618 119.919 79.8724C119.763 79.6782 119.557 79.5243 119.301 79.4106C119.05 79.2922 118.75 79.2329 118.399 79.2328C117.93 79.2327 117.535 79.332 117.213 79.5308C116.891 79.7248 116.73 79.9852 116.73 80.3119C116.73 80.5723 116.834 80.7925 117.042 80.9725C117.25 81.1525 117.608 81.297 118.115 81.406L120.089 81.8043C121.149 82.0223 121.94 82.3729 122.461 82.856C122.981 83.3391 123.242 83.9736 123.241 84.7596C123.241 85.4746 123.03 86.1019 122.609 86.6416C122.192 87.1812 121.619 87.6025 120.89 87.9053C120.165 88.2034 119.33 88.3524 118.383 88.3521C116.938 88.3517 115.788 88.0508 114.931 87.4492C114.079 86.8429 113.58 86.019 113.433 84.9772L116.409 84.8218C116.499 85.2621 116.717 85.5984 117.062 85.8305C117.408 86.0578 117.85 86.1716 118.39 86.1717C118.921 86.1719 119.347 86.0702 119.669 85.8666C119.996 85.6584 120.161 85.3909 120.166 85.0642C120.161 84.7896 120.046 84.5647 119.818 84.3894C119.591 84.2094 119.241 84.072 118.767 83.9772L116.878 83.6003C115.813 83.387 115.02 83.0174 114.499 82.4917C113.983 81.966 113.725 81.296 113.726 80.4816C113.726 79.7808 113.915 79.1772 114.294 78.6707C114.678 78.1641 115.215 77.7736 115.907 77.4992C116.603 77.2248 117.417 77.0877 118.35 77.0879C119.728 77.0883 120.812 77.3797 121.603 77.9623C122.398 78.5449 122.862 79.3381 122.994 80.3419Z" fill="#5921AB"/>
<g filter="url(#filter0_d_11_6)">
<ellipse cx="34.9974" cy="35.4753" rx="34.9974" ry="35.4753" transform="matrix(1 0.000263035 -0.00025564 1 4.02811 31.3135)" fill="url(#paint0_linear_11_6)"/>
<path d="M32.7336 46.0698C42.6266 46.0727 50.6905 54.2122 50.6879 64.3069C50.685 74.4015 42.617 82.536 32.7242 82.5337C22.831 82.5311 14.7665 74.3923 14.7689 64.2976C14.7715 54.2027 22.8404 46.0673 32.7336 46.0698Z" fill="#D9D9D9" fill-opacity="0.08" stroke="white" stroke-width="4"/>
<rect width="19.7257" height="6.18939" rx="3.09469" transform="matrix(0.835132 0.550056 -0.531639 0.846967 49.4129 72.3435)" fill="white"/>
<path d="M22.9323 65.9856L22.9327 64.3606L29.4334 61.5001L29.433 63.3697L24.9822 65.1551L25.0422 65.0582L25.0422 65.289L24.9822 65.1921L29.432 66.9798L29.4315 68.8495L22.9323 65.9856ZM35.5047 59.0595L32.4549 70.3783L30.7607 70.3779L33.8105 59.0591L35.5047 59.0595ZM43.3336 65.9909L36.8329 68.8514L36.8334 66.9817L41.2841 65.1963L41.2241 65.2932L41.2242 65.0624L41.2841 65.1594L36.8343 63.3716L36.8348 61.502L43.3341 64.3659L43.3336 65.9909Z" fill="white"/>
</g>
<defs>
<filter id="filter0_d_11_6" x="0.019043" y="31.3227" width="77.9948" height="78.9506" filterUnits="userSpaceOnUse" color-interpolation-filters="sRGB">
<feFlood flood-opacity="0" result="BackgroundImageFix"/>
<feColorMatrix in="SourceAlpha" type="matrix" values="0 0 0 0 0 0 0 0 0 0 0 0 0 0 0 0 0 0 127 0" result="hardAlpha"/>
<feOffset dy="4"/>
<feGaussianBlur stdDeviation="2"/>
<feComposite in2="hardAlpha" operator="out"/>
<feColorMatrix type="matrix" values="0 0 0 0 0 0 0 0 0 0 0 0 0 0 0 0 0 0 0.25 0"/>
<feBlend mode="normal" in2="BackgroundImageFix" result="effect1_dropShadow_11_6"/>
<feBlend mode="normal" in="SourceGraphic" in2="effect1_dropShadow_11_6" result="shape"/>
</filter>
<linearGradient id="paint0_linear_11_6" x1="17.9987" y1="56.0847" x2="60.3558" y2="27.5637" gradientUnits="userSpaceOnUse">
<stop offset="0.0913462" stop-color="#2A095C"/>
<stop offset="1" stop-color="#7F51C4"/>
</linearGradient>
</defs>
</svg>
